<svg xmlns="http://www.w3.org/2000/svg" xmlns:xlink="http://www.w3.org/1999/xlink" viewBox="0,0,256,256" width="480px" height="480px" fill-rule="evenodd">
<g fill="none" fill-rule="evenodd" stroke="none" stroke-width="1" stroke-linecap="butt" stroke-linejoin="miter" stroke-miterlimit="10" stroke-dasharray="" stroke-dashoffset="0" font-family="none" font-weight="none" font-size="none" text-anchor="none" style="mix-blend-mode: normal">
<g transform="scale(5.33333,5.33333)"><path d="M7.003,31.991v2.001h34.001v-2.001z" fill="#403a3a">
</path><path d="M17.003,5.991v2.001h2.001v-2.001z" fill="#403a3a"></path>
<path d="M29.003,5.99v2.001h2.001v-2.001z" fill="#403a3a"></path>
<path d="M13.11,43.439l-2.757,-5.512l-0.232,-0.023c-1.952,-0.397 -3.116,-2.103 -3.116,-3.913c0,-4.547 1.587,-9.284 4.088,-13.061l1,-1.384l0.461,-1.529c1.101,-3.324 2.643,-6.016 4.911,-7.389l0.54,-0.259v-0.045l-0.132,-0.177c-0.376,-0.516 -0.868,-1.289 -0.868,-2.155c0,-1.611 0.452,-2.985 1.085,-4.407c0.239,-0.535 0.884,-0.751 1.396,-0.468c1.545,0.849 3.519,2.637 3.519,4.875v1h1.997v-1c0,-2.237 1.972,-4.025 3.517,-4.875c0.512,-0.283 1.157,-0.067 1.396,0.468c0.633,1.421 1.087,2.796 1.087,4.407c0,0.865 -0.495,1.639 -0.871,2.155l-0.129,0.176v0.047l0.537,0.259c2.268,1.373 3.809,4.065 4.911,7.389l0.461,1.529l1,1.384c2.501,3.777 4.091,8.515 4.091,13.061c0,1.811 -1.167,3.516 -3.117,3.913l-0.233,0.023l-2.756,5.512c-0.896,1.792 -2.711,2.552 -4.893,2.552h-11.998c-2.184,-0.001 -3.999,-0.761 -4.895,-2.553z" fill="#403a3a"></path>
<path d="M30.002,42.991h-11.997c-1.961,0 -3.333,-0.667 -4,-2l-3,-6c-1.864,0 -3,-1.421 -3,-3c0,-4.953 1.985,-10.184 5,-14c1.279,-4.669 3.151,-7.964 6,-9v-1c-0.435,-0.616 -1,-1.256 -1,-2c0,-1.411 0.392,-2.636 1,-4c1.46,0.804 3,2.333 3,4v2h3.997v-2c0,-1.667 1.54,-3.196 3,-4c0.608,1.364 1,2.589 1,4c0,0.744 -0.565,1.384 -1,2v1c2.849,1.036 4.721,4.331 6,9c3.015,3.816 5,9.047 5,14c0,1.579 -1.136,3 -3,3l-3,6c-0.667,1.334 -2.039,2 -4,2z" fill="#ffffff"></path>
<path d="M13.11,41.439l-2.757,-5.512l-0.232,-0.023c-1.952,-0.397 -3.116,-2.103 -3.116,-3.913c0,-4.547 1.587,-9.284 4.088,-13.061l1,-1.384l0.461,-1.529c1.101,-3.324 2.643,-6.016 4.911,-7.389l0.54,-0.259v-0.046l-0.132,-0.177c-0.376,-0.516 -0.868,-1.289 -0.868,-2.155c0,-1.611 0.452,-2.985 1.085,-4.407c0.239,-0.535 0.884,-0.751 1.396,-0.468c1.545,0.849 3.519,2.637 3.519,4.875v1h1.997v-1c0,-2.237 1.972,-4.025 3.517,-4.875c0.512,-0.283 1.157,-0.067 1.396,0.468c0.633,1.421 1.087,2.796 1.087,4.407c0,0.865 -0.495,1.639 -0.871,2.155l-0.129,0.176v0.047l0.537,0.259c2.268,1.373 3.809,4.065 4.911,7.389l0.461,1.529l1,1.384c2.501,3.777 4.091,8.515 4.091,13.061c0,1.811 -1.167,3.516 -3.117,3.913l-0.233,0.023l-2.756,5.512c-0.896,1.792 -2.711,2.552 -4.893,2.552h-11.998c-2.184,0 -3.999,-0.76 -4.895,-2.552zM33.107,40.545l3,-6c0.169,-0.339 0.515,-0.553 0.895,-0.553c1.249,0 2,-0.909 2,-2c0,-4.708 -1.897,-9.724 -4.785,-13.38c-0.083,-0.105 -0.144,-0.225 -0.18,-0.355c-1.273,-4.652 -3.037,-7.473 -5.377,-8.325c-0.395,-0.143 -0.657,-0.519 -0.657,-0.94v-1c0,-0.205 0.063,-0.407 0.183,-0.576c0.563,-0.799 0.817,-1.088 0.817,-1.424c0,-0.604 -0.084,-1.176 -0.24,-1.759l-0.24,-0.716c-0.899,0.735 -1.52,1.655 -1.52,2.475v2c0,0.552 -0.449,1 -1,1h-3.997c-0.552,0 -1,-0.448 -1,-1v-2c0,-0.82 -0.624,-1.74 -1.523,-2.475l-0.24,0.716c-0.155,0.583 -0.237,1.155 -0.237,1.759c0,0.336 0.253,0.625 0.816,1.424c0.12,0.169 0.184,0.371 0.184,0.576v1c0,0.421 -0.264,0.797 -0.659,0.94c-2.34,0.852 -4.104,3.673 -5.377,8.325c-0.036,0.129 -0.097,0.249 -0.18,0.355c-2.888,3.656 -4.784,8.672 -4.784,13.38c0,1.091 0.749,2 2,2c0.379,0 0.724,0.215 0.893,0.553l3,6c0.437,0.875 1.367,1.447 3.107,1.447h11.997c1.738,-0.001 2.667,-0.573 3.104,-1.447z" fill="#403a3a">
</path>
<path d="M12.003,28.991c0,-6.624 5.375,-12 12,-12c6.624,0 12,5.376 12,12c0,6.625 -5.376,12 -12,12c-6.625,0 -12,-5.374 -12,-12zM34.003,28.991c0,-5.519 -4.481,-10 -10,-10c-5.52,0 -10,4.481 -10,10c0,5.52 4.48,10 10,10c5.519,0 10,-4.48 10,-10z" fill="#403a3a"></path>
<path d="M19.505,10.993c0.828,0 1.5,0.672 1.5,1.5c0,0.828 -0.672,1.5 -1.5,1.5c-0.828,0 -1.5,-0.672 -1.5,-1.5c0,-0.828 0.672,-1.5 1.5,-1.5z" fill="#403a3a"></path>
<path d="M15.839,14.978l-6,-1c-0.544,-0.091 -0.912,-0.605 -0.821,-1.151c0.091,-0.544 0.605,-0.912 1.151,-0.821l6,1c0.544,0.091 0.912,0.605 0.821,1.151c-0.091,0.544 -0.605,0.912 -1.151,0.821z" fill="#403a3a"></path>
<path d="M8.042,17.267c-0.151,-0.532 0.156,-1.085 0.687,-1.237l7,-2c0.532,-0.151 1.085,0.156 1.237,0.687c0.151,0.532 -0.156,1.085 -0.687,1.237l-7,2c-0.532,0.151 -1.085,-0.156 -1.237,-0.687z" fill="#403a3a"></path>
<path d="M24.005,11.991c1.104,0 2,0.151 2,0.703c0,0.552 -0.896,1.297 -2,1.297c-1.104,0 -2,-0.745 -2,-1.297c0,-0.552 0.896,-0.703 2,-0.703z" fill="#403a3a"></path>
<path d="M28.498,10.993c-0.828,0 -1.5,0.672 -1.5,1.5c0,0.828 0.672,1.5 1.5,1.5c0.828,0 1.5,-0.672 1.5,-1.5c0,-0.828 -0.672,-1.5 -1.5,-1.5z" fill="#403a3a"></path>
<path d="M31.013,14.157c-0.091,-0.545 0.277,-1.06 0.821,-1.151l6,-1c0.545,-0.091 1.06,0.277 1.151,0.821c0.091,0.545 -0.277,1.06 -0.821,1.151l-6,1c-0.546,0.091 -1.061,-0.277 -1.151,-0.821z" fill="#403a3a"></path>
<path d="M38.723,17.954l-7,-2c-0.531,-0.152 -0.837,-0.705 -0.687,-1.237c0.152,-0.531 0.705,-0.837 1.237,-0.687l7,2c0.531,0.152 0.837,0.705 0.687,1.237c-0.151,0.531 -0.705,0.838 -1.237,0.687z" fill="#403a3a"></path>
<path d="M24.005,20.991c0.988,0 1.812,0.86 2.001,2h-4.004c0.189,-1.14 1.013,-2 2.003,-2z" fill="#403a3a"></path>
<path d="M19.007,21.991c0.988,0 1.812,0.86 2.001,2h-4.004c0.19,-1.14 1.014,-2 2.003,-2z" fill="#403a3a"></path>
<path d="M29.003,21.991c0.988,0 1.812,0.86 2.001,2h-4.004c0.19,-1.14 1.014,-2 2.003,-2z" fill="#403a3a"></path>
<path d="M21.007,24.991c0.988,0 1.812,0.86 2.001,2h-4.004c0.19,-1.14 1.014,-2 2.003,-2z" fill="#403a3a"></path>
<path d="M27.003,24.991c0.988,0 1.812,0.86 2.001,2h-4.004c0.19,-1.14 1.014,-2 2.003,-2z" fill="#403a3a"></path></g></g></svg>