<!DOCTYPE svg PUBLIC "-//W3C//DTD SVG 1.1//EN" "http://www.w3.org/Graphics/SVG/1.1/DTD/svg11.dtd">
<!-- Uploaded to: SVG Repo, www.svgrepo.com, Transformed by: SVG Repo Mixer Tools -->
<svg version="1.0" id="Layer_1" xmlns="http://www.w3.org/2000/svg" xmlns:xlink="http://www.w3.org/1999/xlink" width="800px" height="800px" viewBox="0 0 64 64" enable-background="new 0 0 64 64" xml:space="preserve" fill="#000000">
<g id="SVGRepo_bgCarrier" stroke-width="0"/>
<g id="SVGRepo_tracerCarrier" stroke-linecap="round" stroke-linejoin="round"/>
<g id="SVGRepo_iconCarrier"> <g> <path fill="#fdd048" d="M8,32h12c2.211,0,4,1.789,4,4v4h16v-4c0-2.211,1.789-4,4-4h12V8H8V32z"/> <g> <path fill="oklch(35.46% 0.008 17.55)" d="M60,0H4C1.789,0,0,1.789,0,4v56c0,2.211,1.789,4,4,4h56c2.211,0,4-1.789,4-4V4C64,1.789,62.211,0,60,0z M56,56H8V40h8v4c0,2.211,1.789,4,4,4h24c2.211,0,4-1.789,4-4v-4h8V56z M56,32H44c-2.211,0-4,1.789-4,4v4H24v-4 c0-2.211-1.789-4-4-4H8V8h48V32z"/> <path fill="oklch(35.46% 0.008 17.55)" d="M20,24h24c2.211,0,4-1.789,4-4s-1.789-4-4-4H20c-2.211,0-4,1.789-4,4S17.789,24,20,24z"/> </g> <path fill="#89e1eb" d="M8,56h48V40h-8v4c0,2.211-1.789,4-4,4H20c-2.211,0-4-1.789-4-4v-4H8V56z"/> </g> </g>
</svg>